<svg width="86" height="65" viewBox="0 0 86 65" fill="none" xmlns="http://www.w3.org/2000/svg">
<circle cx="43.5" cy="32.5" r="32.5" fill="#F2F5FF"/>
<path d="M2.62891 34.3707V29.9389L18.055 23.4616V28.3089L7.87038 32.1122L8.03018 31.8778V32.4425L7.87038 32.1974L18.055 36.0114V40.848L2.62891 34.3707Z" fill="#F22B29"/>
<path d="M42.1025 29.0866H36.7757C36.7047 28.5398 36.5591 28.0462 36.339 27.6058C36.1188 27.1655 35.8276 26.7891 35.4654 26.4766C35.1032 26.1641 34.6735 25.9261 34.1763 25.7628C33.6863 25.5923 33.1429 25.5071 32.5463 25.5071C31.4881 25.5071 30.5755 25.7663 29.8084 26.2848C29.0485 26.8033 28.4625 27.5526 28.0506 28.5327C27.6458 29.5128 27.4434 30.6989 27.4434 32.0909C27.4434 33.5398 27.6493 34.7543 28.0613 35.7344C28.4803 36.7074 29.0662 37.4425 29.8191 37.9396C30.579 38.4297 31.4775 38.6747 32.5144 38.6747C33.0968 38.6747 33.6259 38.6001 34.1017 38.451C34.5847 38.3018 35.0073 38.0852 35.3695 37.8011C35.7388 37.5099 36.0407 37.1584 36.275 36.7464C36.5165 36.3274 36.6834 35.8551 36.7757 35.3295L42.1025 35.3615C42.0101 36.3274 41.7296 37.2791 41.2608 38.2166C40.7992 39.1541 40.1635 40.0099 39.3539 40.7841C38.5442 41.5511 37.557 42.1619 36.3922 42.6165C35.2346 43.071 33.9064 43.2983 32.4078 43.2983C30.4334 43.2983 28.665 42.8651 27.1025 41.9986C25.5471 41.125 24.3184 39.8537 23.4164 38.1847C22.5144 36.5156 22.0634 34.4844 22.0634 32.0909C22.0634 29.6903 22.5215 27.6555 23.4377 25.9865C24.3539 24.3175 25.5932 23.0497 27.1557 22.1832C28.7182 21.3168 30.4689 20.8835 32.4078 20.8835C33.7289 20.8835 34.9505 21.0682 36.0726 21.4375C37.1948 21.7997 38.182 22.3324 39.0343 23.0355C39.8865 23.7315 40.579 24.5874 41.1117 25.603C41.6444 26.6186 41.9746 27.7798 42.1025 29.0866ZM63.6889 21.1818V43H59.2145L50.532 30.4077H50.3935V43H45.12V21.1818H49.6584L58.245 33.7528H58.4261V21.1818H63.6889Z" fill="#252422"/>
<path d="M83.3578 34.3707L67.9316 40.848V36.0114L78.1163 32.1974L77.9672 32.4425V31.8778L78.1163 32.1122L67.9316 28.3089V23.4616L83.3578 29.9389V34.3707Z" fill="#FF0300"/>
</svg>
